<svg width="271" height="128" viewBox="0 0 271 128" fill="none" xmlns="http://www.w3.org/2000/svg">
<mask id="mask0_132_3753" style="mask-type:alpha" maskUnits="userSpaceOnUse" x="17" y="37" width="220" height="41">
<mask id="path-1-outside-1_132_3753" maskUnits="userSpaceOnUse" x="9" y="29" width="238" height="57" fill="black">
<rect fill="white" x="9" y="29" width="238" height="57"/>
<path d="M33.8579 77.624C36.6313 77.624 39.1099 76.9653 41.2939 75.648C43.4779 74.3307 45.1939 72.5453 46.4419 70.292C47.7246 68.0387 48.3659 65.5427 48.3659 62.804C48.3659 60.0307 47.7246 57.5347 46.4419 55.316C45.1593 53.0627 43.4259 51.2773 41.2419 49.96C39.0579 48.6427 36.6139 47.984 33.9099 47.984C30.4779 47.984 27.7566 48.9893 25.7459 51V37.636H17.9459V77H25.2259V74.296C26.2313 75.3707 27.4793 76.2027 28.9699 76.792C30.4953 77.3467 32.1246 77.624 33.8579 77.624ZM32.9219 70.604C30.8073 70.604 29.0739 69.8933 27.7219 68.472C26.4046 67.016 25.7459 65.1267 25.7459 62.804C25.7459 60.516 26.4046 58.644 27.7219 57.188C29.0739 55.732 30.8073 55.004 32.9219 55.004C35.0713 55.004 36.8393 55.7493 38.2259 57.24C39.6126 58.696 40.3059 60.5507 40.3059 62.804C40.3059 65.092 39.6126 66.964 38.2259 68.42C36.8393 69.876 35.0713 70.604 32.9219 70.604ZM63.1262 77.624C64.9289 77.624 66.5236 77.2947 67.9102 76.636C69.2969 75.9427 70.3542 74.9027 71.0822 73.516V77H78.3622V48.608H70.5622V65.196C70.5622 66.8253 70.0769 68.1427 69.1062 69.148C68.1356 70.1187 66.8876 70.604 65.3622 70.604C63.8369 70.604 62.5889 70.1187 61.6182 69.148C60.6476 68.1427 60.1622 66.8253 60.1622 65.196V48.608H52.3622V65.82C52.3622 69.356 53.2809 72.216 55.1182 74.4C56.9902 76.5493 59.6596 77.624 63.1262 77.624ZM95.1911 77.624C98.4845 77.624 101.136 76.8093 103.147 75.18C105.158 73.5507 106.163 71.4187 106.163 68.784C106.163 66.7387 105.539 65.0227 104.291 63.636C103.043 62.2147 101.24 61.1573 98.8831 60.464L94.3591 59.112C92.3138 58.5227 91.2911 57.6733 91.2911 56.564C91.2911 55.836 91.5685 55.264 92.1231 54.848C92.7125 54.432 93.5098 54.224 94.5151 54.224C95.9018 54.224 97.1325 54.588 98.2071 55.316C99.3165 56.0093 100.079 56.9453 100.495 58.124L106.267 55.42C105.4 53.0627 103.91 51.2427 101.795 49.96C99.7151 48.6427 97.2885 47.984 94.5151 47.984C92.4005 47.984 90.5285 48.3653 88.8991 49.128C87.2698 49.856 86.0045 50.8787 85.1031 52.196C84.2018 53.5133 83.7511 55.056 83.7511 56.824C83.7511 58.8347 84.3751 60.5853 85.6231 62.076C86.8711 63.532 88.6565 64.5893 90.9791 65.248L95.8151 66.6C97.6871 67.12 98.6231 67.952 98.6231 69.096C98.6231 70.7947 97.4791 71.644 95.1911 71.644C93.6658 71.644 92.2791 71.2107 91.0311 70.344C89.7831 69.4773 88.7951 68.2813 88.0671 66.756L82.3471 69.46C83.1791 71.956 84.7391 73.9493 87.0271 75.44C89.3498 76.896 92.0711 77.624 95.1911 77.624ZM110.825 46.06H118.625V38.26H110.825V46.06ZM110.825 77H118.625V48.608H110.825V77ZM124.333 77H132.133V60.412C132.133 58.7827 132.618 57.4827 133.589 56.512C134.559 55.5067 135.807 55.004 137.333 55.004C138.858 55.004 140.106 55.5067 141.077 56.512C142.047 57.4827 142.533 58.7827 142.533 60.412V77H150.333V58.748C150.333 56.5987 149.882 54.7267 148.981 53.132C148.079 51.5027 146.814 50.2373 145.185 49.336C143.59 48.4347 141.718 47.984 139.569 47.984C137.766 47.984 136.171 48.3307 134.785 49.024C133.398 49.6827 132.341 50.7053 131.613 52.092V48.608H124.333V77ZM169.138 77.624C172.05 77.624 174.598 77 176.782 75.752C178.966 74.4693 180.491 72.788 181.358 70.708L175.118 67.744C174.563 68.7147 173.783 69.4773 172.778 70.032C171.807 70.5867 170.628 70.864 169.242 70.864C167.335 70.864 165.775 70.3267 164.562 69.252C163.348 68.1773 162.638 66.756 162.43 64.988H182.294C182.432 64.6067 182.519 64.156 182.554 63.636C182.623 63.0813 182.658 62.5267 182.658 61.972C182.658 59.3373 182.103 56.98 180.994 54.9C179.919 52.7853 178.342 51.104 176.262 49.856C174.182 48.608 171.634 47.984 168.618 47.984C165.914 47.984 163.487 48.6253 161.338 49.908C159.188 51.1907 157.472 52.9413 156.19 55.16C154.942 57.3787 154.318 59.9093 154.318 62.752C154.318 65.4907 154.924 67.9867 156.138 70.24C157.351 72.4933 159.067 74.296 161.286 75.648C163.504 76.9653 166.122 77.624 169.138 77.624ZM168.618 54.224C170.212 54.224 171.53 54.692 172.57 55.628C173.61 56.564 174.216 57.7773 174.39 59.268H162.586C162.967 57.6387 163.678 56.3907 164.718 55.524C165.792 54.6573 167.092 54.224 168.618 54.224ZM198.379 77.624C201.672 77.624 204.324 76.8093 206.335 75.18C208.345 73.5507 209.351 71.4187 209.351 68.784C209.351 66.7387 208.727 65.0227 207.479 63.636C206.231 62.2147 204.428 61.1573 202.071 60.464L197.547 59.112C195.501 58.5227 194.479 57.6733 194.479 56.564C194.479 55.836 194.756 55.264 195.311 54.848C195.9 54.432 196.697 54.224 197.703 54.224C199.089 54.224 200.32 54.588 201.395 55.316C202.504 56.0093 203.267 56.9453 203.683 58.124L209.455 55.42C208.588 53.0627 207.097 51.2427 204.983 49.96C202.903 48.6427 200.476 47.984 197.703 47.984C195.588 47.984 193.716 48.3653 192.087 49.128C190.457 49.856 189.192 50.8787 188.291 52.196C187.389 53.5133 186.939 55.056 186.939 56.824C186.939 58.8347 187.563 60.5853 188.811 62.076C190.059 63.532 191.844 64.5893 194.167 65.248L199.003 66.6C200.875 67.12 201.811 67.952 201.811 69.096C201.811 70.7947 200.667 71.644 198.379 71.644C196.853 71.644 195.467 71.2107 194.219 70.344C192.971 69.4773 191.983 68.2813 191.255 66.756L185.535 69.46C186.367 71.956 187.927 73.9493 190.215 75.44C192.537 76.896 195.259 77.624 198.379 77.624ZM225.14 77.624C228.434 77.624 231.086 76.8093 233.096 75.18C235.107 73.5507 236.112 71.4187 236.112 68.784C236.112 66.7387 235.488 65.0227 234.24 63.636C232.992 62.2147 231.19 61.1573 228.832 60.464L224.308 59.112C222.263 58.5227 221.24 57.6733 221.24 56.564C221.24 55.836 221.518 55.264 222.072 54.848C222.662 54.432 223.459 54.224 224.464 54.224C225.851 54.224 227.082 54.588 228.156 55.316C229.266 56.0093 230.028 56.9453 230.444 58.124L236.216 55.42C235.35 53.0627 233.859 51.2427 231.744 49.96C229.664 48.6427 227.238 47.984 224.464 47.984C222.35 47.984 220.478 48.3653 218.848 49.128C217.219 49.856 215.954 50.8787 215.052 52.196C214.151 53.5133 213.7 55.056 213.7 56.824C213.7 58.8347 214.324 60.5853 215.572 62.076C216.82 63.532 218.606 64.5893 220.928 65.248L225.764 66.6C227.636 67.12 228.572 67.952 228.572 69.096C228.572 70.7947 227.428 71.644 225.14 71.644C223.615 71.644 222.228 71.2107 220.98 70.344C219.732 69.4773 218.744 68.2813 218.016 66.756L212.296 69.46C213.128 71.956 214.688 73.9493 216.976 75.44C219.299 76.896 222.02 77.624 225.14 77.624Z"/>
</mask>
<path d="M33.8579 77.624C36.6313 77.624 39.1099 76.9653 41.2939 75.648C43.4779 74.3307 45.1939 72.5453 46.4419 70.292C47.7246 68.0387 48.3659 65.5427 48.3659 62.804C48.3659 60.0307 47.7246 57.5347 46.4419 55.316C45.1593 53.0627 43.4259 51.2773 41.2419 49.96C39.0579 48.6427 36.6139 47.984 33.9099 47.984C30.4779 47.984 27.7566 48.9893 25.7459 51V37.636H17.9459V77H25.2259V74.296C26.2313 75.3707 27.4793 76.2027 28.9699 76.792C30.4953 77.3467 32.1246 77.624 33.8579 77.624ZM32.9219 70.604C30.8073 70.604 29.0739 69.8933 27.7219 68.472C26.4046 67.016 25.7459 65.1267 25.7459 62.804C25.7459 60.516 26.4046 58.644 27.7219 57.188C29.0739 55.732 30.8073 55.004 32.9219 55.004C35.0713 55.004 36.8393 55.7493 38.2259 57.24C39.6126 58.696 40.3059 60.5507 40.3059 62.804C40.3059 65.092 39.6126 66.964 38.2259 68.42C36.8393 69.876 35.0713 70.604 32.9219 70.604ZM63.1262 77.624C64.9289 77.624 66.5236 77.2947 67.9102 76.636C69.2969 75.9427 70.3542 74.9027 71.0822 73.516V77H78.3622V48.608H70.5622V65.196C70.5622 66.8253 70.0769 68.1427 69.1062 69.148C68.1356 70.1187 66.8876 70.604 65.3622 70.604C63.8369 70.604 62.5889 70.1187 61.6182 69.148C60.6476 68.1427 60.1622 66.8253 60.1622 65.196V48.608H52.3622V65.82C52.3622 69.356 53.2809 72.216 55.1182 74.4C56.9902 76.5493 59.6596 77.624 63.1262 77.624ZM95.1911 77.624C98.4845 77.624 101.136 76.8093 103.147 75.18C105.158 73.5507 106.163 71.4187 106.163 68.784C106.163 66.7387 105.539 65.0227 104.291 63.636C103.043 62.2147 101.24 61.1573 98.8831 60.464L94.3591 59.112C92.3138 58.5227 91.2911 57.6733 91.2911 56.564C91.2911 55.836 91.5685 55.264 92.1231 54.848C92.7125 54.432 93.5098 54.224 94.5151 54.224C95.9018 54.224 97.1325 54.588 98.2071 55.316C99.3165 56.0093 100.079 56.9453 100.495 58.124L106.267 55.42C105.4 53.0627 103.91 51.2427 101.795 49.96C99.7151 48.6427 97.2885 47.984 94.5151 47.984C92.4005 47.984 90.5285 48.3653 88.8991 49.128C87.2698 49.856 86.0045 50.8787 85.1031 52.196C84.2018 53.5133 83.7511 55.056 83.7511 56.824C83.7511 58.8347 84.3751 60.5853 85.6231 62.076C86.8711 63.532 88.6565 64.5893 90.9791 65.248L95.8151 66.6C97.6871 67.12 98.6231 67.952 98.6231 69.096C98.6231 70.7947 97.4791 71.644 95.1911 71.644C93.6658 71.644 92.2791 71.2107 91.0311 70.344C89.7831 69.4773 88.7951 68.2813 88.0671 66.756L82.3471 69.46C83.1791 71.956 84.7391 73.9493 87.0271 75.44C89.3498 76.896 92.0711 77.624 95.1911 77.624ZM110.825 46.06H118.625V38.26H110.825V46.06ZM110.825 77H118.625V48.608H110.825V77ZM124.333 77H132.133V60.412C132.133 58.7827 132.618 57.4827 133.589 56.512C134.559 55.5067 135.807 55.004 137.333 55.004C138.858 55.004 140.106 55.5067 141.077 56.512C142.047 57.4827 142.533 58.7827 142.533 60.412V77H150.333V58.748C150.333 56.5987 149.882 54.7267 148.981 53.132C148.079 51.5027 146.814 50.2373 145.185 49.336C143.59 48.4347 141.718 47.984 139.569 47.984C137.766 47.984 136.171 48.3307 134.785 49.024C133.398 49.6827 132.341 50.7053 131.613 52.092V48.608H124.333V77ZM169.138 77.624C172.05 77.624 174.598 77 176.782 75.752C178.966 74.4693 180.491 72.788 181.358 70.708L175.118 67.744C174.563 68.7147 173.783 69.4773 172.778 70.032C171.807 70.5867 170.628 70.864 169.242 70.864C167.335 70.864 165.775 70.3267 164.562 69.252C163.348 68.1773 162.638 66.756 162.43 64.988H182.294C182.432 64.6067 182.519 64.156 182.554 63.636C182.623 63.0813 182.658 62.5267 182.658 61.972C182.658 59.3373 182.103 56.98 180.994 54.9C179.919 52.7853 178.342 51.104 176.262 49.856C174.182 48.608 171.634 47.984 168.618 47.984C165.914 47.984 163.487 48.6253 161.338 49.908C159.188 51.1907 157.472 52.9413 156.19 55.16C154.942 57.3787 154.318 59.9093 154.318 62.752C154.318 65.4907 154.924 67.9867 156.138 70.24C157.351 72.4933 159.067 74.296 161.286 75.648C163.504 76.9653 166.122 77.624 169.138 77.624ZM168.618 54.224C170.212 54.224 171.53 54.692 172.57 55.628C173.61 56.564 174.216 57.7773 174.39 59.268H162.586C162.967 57.6387 163.678 56.3907 164.718 55.524C165.792 54.6573 167.092 54.224 168.618 54.224ZM198.379 77.624C201.672 77.624 204.324 76.8093 206.335 75.18C208.345 73.5507 209.351 71.4187 209.351 68.784C209.351 66.7387 208.727 65.0227 207.479 63.636C206.231 62.2147 204.428 61.1573 202.071 60.464L197.547 59.112C195.501 58.5227 194.479 57.6733 194.479 56.564C194.479 55.836 194.756 55.264 195.311 54.848C195.9 54.432 196.697 54.224 197.703 54.224C199.089 54.224 200.32 54.588 201.395 55.316C202.504 56.0093 203.267 56.9453 203.683 58.124L209.455 55.42C208.588 53.0627 207.097 51.2427 204.983 49.96C202.903 48.6427 200.476 47.984 197.703 47.984C195.588 47.984 193.716 48.3653 192.087 49.128C190.457 49.856 189.192 50.8787 188.291 52.196C187.389 53.5133 186.939 55.056 186.939 56.824C186.939 58.8347 187.563 60.5853 188.811 62.076C190.059 63.532 191.844 64.5893 194.167 65.248L199.003 66.6C200.875 67.12 201.811 67.952 201.811 69.096C201.811 70.7947 200.667 71.644 198.379 71.644C196.853 71.644 195.467 71.2107 194.219 70.344C192.971 69.4773 191.983 68.2813 191.255 66.756L185.535 69.46C186.367 71.956 187.927 73.9493 190.215 75.44C192.537 76.896 195.259 77.624 198.379 77.624ZM225.14 77.624C228.434 77.624 231.086 76.8093 233.096 75.18C235.107 73.5507 236.112 71.4187 236.112 68.784C236.112 66.7387 235.488 65.0227 234.24 63.636C232.992 62.2147 231.19 61.1573 228.832 60.464L224.308 59.112C222.263 58.5227 221.24 57.6733 221.24 56.564C221.24 55.836 221.518 55.264 222.072 54.848C222.662 54.432 223.459 54.224 224.464 54.224C225.851 54.224 227.082 54.588 228.156 55.316C229.266 56.0093 230.028 56.9453 230.444 58.124L236.216 55.42C235.35 53.0627 233.859 51.2427 231.744 49.96C229.664 48.6427 227.238 47.984 224.464 47.984C222.35 47.984 220.478 48.3653 218.848 49.128C217.219 49.856 215.954 50.8787 215.052 52.196C214.151 53.5133 213.7 55.056 213.7 56.824C213.7 58.8347 214.324 60.5853 215.572 62.076C216.82 63.532 218.606 64.5893 220.928 65.248L225.764 66.6C227.636 67.12 228.572 67.952 228.572 69.096C228.572 70.7947 227.428 71.644 225.14 71.644C223.615 71.644 222.228 71.2107 220.98 70.344C219.732 69.4773 218.744 68.2813 218.016 66.756L212.296 69.46C213.128 71.956 214.688 73.9493 216.976 75.44C219.299 76.896 222.02 77.624 225.14 77.624Z" fill="#18181B"/>
<path d="M41.2939 75.648L37.162 68.7977L41.2939 75.648ZM46.4419 70.292L39.4894 66.3344L39.4663 66.3751L39.4436 66.416L46.4419 70.292ZM46.4419 55.316L39.4894 59.2736L39.5027 59.2968L39.5161 59.32L46.4419 55.316ZM41.2419 49.96L45.3739 43.1097L41.2419 49.96ZM25.7459 51H17.7459V70.3137L31.4028 56.6569L25.7459 51ZM25.7459 37.636H33.7459V29.636H25.7459V37.636ZM17.9459 37.636V29.636H9.94594V37.636H17.9459ZM17.9459 77H9.94594V85H17.9459V77ZM25.2259 77V85H33.2259V77H25.2259ZM25.2259 74.296L31.0681 68.8307L17.2259 54.0339V74.296H25.2259ZM28.9699 76.792L26.0287 84.2317L26.1318 84.2725L26.236 84.3103L28.9699 76.792ZM27.7219 68.472L21.7897 73.8393L21.8566 73.9134L21.9255 73.9857L27.7219 68.472ZM27.7219 57.188L21.8596 51.7444L21.8244 51.7823L21.7897 51.8207L27.7219 57.188ZM38.2259 57.24L32.3684 62.6888L32.4004 62.7232L32.4328 62.7572L38.2259 57.24ZM38.2259 68.42L44.019 73.9372L38.2259 68.42ZM33.8579 85.624C37.9559 85.624 41.8868 84.633 45.4259 82.4983L37.162 68.7977C36.3331 69.2977 35.3066 69.624 33.8579 69.624V85.624ZM45.4259 82.4983C48.8217 80.4501 51.5207 77.6338 53.4403 74.168L39.4436 66.416C38.8671 67.4568 38.1342 68.2113 37.162 68.7977L45.4259 82.4983ZM53.3945 74.2496C55.4026 70.7218 56.3659 66.8494 56.3659 62.804H40.3659C40.3659 64.2359 40.0466 65.3556 39.4894 66.3344L53.3945 74.2496ZM56.3659 62.804C56.3659 58.744 55.4115 54.847 53.3678 51.312L39.5161 59.32C40.0377 60.2224 40.3659 61.3173 40.3659 62.804H56.3659ZM53.3945 51.3584C51.4463 47.936 48.7503 45.1462 45.3739 43.1097L37.11 56.8103C38.1016 57.4085 38.8722 58.1893 39.4894 59.2736L53.3945 51.3584ZM45.3739 43.1097C41.867 40.9944 37.9789 39.984 33.9099 39.984V55.984C35.2489 55.984 36.2489 56.2909 37.11 56.8103L45.3739 43.1097ZM33.9099 39.984C28.8253 39.984 23.9021 41.5302 20.0891 45.3431L31.4028 56.6569C31.6111 56.4485 32.1305 55.984 33.9099 55.984V39.984ZM33.7459 51V37.636H17.7459V51H33.7459ZM25.7459 29.636H17.9459V45.636H25.7459V29.636ZM9.94594 37.636V77H25.9459V37.636H9.94594ZM17.9459 85H25.2259V69H17.9459V85ZM33.2259 77V74.296H17.2259V77H33.2259ZM19.3838 79.7613C21.2682 81.7757 23.5365 83.2464 26.0287 84.2317L31.9112 69.3523C31.422 69.1589 31.1943 68.9657 31.0681 68.8307L19.3838 79.7613ZM26.236 84.3103C28.6956 85.2047 31.2559 85.624 33.8579 85.624V69.624C32.9933 69.624 32.295 69.4886 31.7039 69.2737L26.236 84.3103ZM32.9219 62.604C32.772 62.604 32.8581 62.5818 33.0708 62.669C33.1703 62.7098 33.2681 62.7629 33.3553 62.8232C33.4417 62.8829 33.4954 62.9341 33.5184 62.9583L21.9255 73.9857C24.914 77.1275 28.8065 78.604 32.9219 78.604V62.604ZM33.6542 63.1047C33.6825 63.136 33.7156 63.1793 33.7456 63.2301C33.7754 63.2806 33.7899 63.3175 33.794 63.3295C33.8031 63.3554 33.7459 63.2101 33.7459 62.804H17.7459C17.7459 66.726 18.9044 70.6504 21.7897 73.8393L33.6542 63.1047ZM33.7459 62.804C33.7459 62.4284 33.7993 62.3027 33.7864 62.3392C33.7806 62.3558 33.7651 62.3937 33.7363 62.4423C33.7073 62.4911 33.6771 62.53 33.6542 62.5553L21.7897 51.8207C18.9247 54.9872 17.7459 58.8812 17.7459 62.804H33.7459ZM33.5843 62.6316C33.5665 62.6508 33.516 62.701 33.4295 62.7621C33.342 62.8241 33.2407 62.8809 33.1338 62.9259C32.9044 63.0222 32.7959 63.004 32.9219 63.004V47.004C28.7432 47.004 24.8311 48.5443 21.8596 51.7444L33.5843 62.6316ZM32.9219 63.004C33.0574 63.004 32.9635 63.0238 32.7523 62.9347C32.6548 62.8936 32.5643 62.8424 32.4883 62.7885C32.4135 62.7355 32.3747 62.6955 32.3684 62.6888L44.0834 51.7912C41.091 48.5744 37.1542 47.004 32.9219 47.004V63.004ZM32.4328 62.7572C32.4218 62.7456 32.394 62.7137 32.3619 62.6627C32.3297 62.6114 32.3066 62.5621 32.2924 62.5243C32.2787 62.4877 32.2811 62.4821 32.2875 62.5201C32.2942 62.5597 32.3059 62.6509 32.3059 62.804H48.3059C48.3059 58.7654 46.9976 54.8502 44.019 51.7228L32.4328 62.7572ZM32.3059 62.804C32.3059 62.9722 32.2932 63.0764 32.2848 63.1268C32.2766 63.1757 32.272 63.1777 32.2839 63.1455C32.2963 63.112 32.3186 63.0634 32.352 63.01C32.3853 62.9567 32.4161 62.9203 32.4328 62.9028L44.019 73.9372C47.0202 70.786 48.3059 66.8403 48.3059 62.804H32.3059ZM32.4328 62.9028C32.4441 62.8909 32.486 62.8498 32.5608 62.798C32.6365 62.7455 32.7236 62.6978 32.8139 62.6606C33.009 62.5803 33.081 62.604 32.9219 62.604V78.604C37.0922 78.604 41.01 77.0967 44.019 73.9372L32.4328 62.9028ZM67.9102 76.636L71.3427 83.8622L71.4157 83.8276L71.4879 83.7914L67.9102 76.636ZM71.0822 73.516H79.0822L63.999 69.7973L71.0822 73.516ZM71.0822 77H63.0822V85H71.0822V77ZM78.3622 77V85H86.3622V77H78.3622ZM78.3622 48.608H86.3622V40.608H78.3622V48.608ZM70.5622 48.608V40.608H62.5622V48.608H70.5622ZM69.1062 69.148L74.7631 74.8049L74.8127 74.7552L74.8614 74.7048L69.1062 69.148ZM61.6182 69.148L55.863 74.7048L55.9117 74.7552L55.9614 74.8049L61.6182 69.148ZM60.1622 48.608H68.1622V40.608H60.1622V48.608ZM52.3622 48.608V40.608H44.3622V48.608H52.3622ZM55.1182 74.4L48.9964 79.5501L49.0405 79.6026L49.0856 79.6542L55.1182 74.4ZM63.1262 85.624C65.9108 85.624 68.7122 85.1117 71.3427 83.8622L64.4778 69.4098C64.3349 69.4776 63.9469 69.624 63.1262 69.624V85.624ZM71.4879 83.7914C74.3907 82.34 76.6665 80.0897 78.1654 77.2347L63.999 69.7973C63.9987 69.798 64.0387 69.7257 64.1333 69.6326C64.2285 69.5389 64.3108 69.4914 64.3325 69.4806L71.4879 83.7914ZM63.0822 73.516V77H79.0822V73.516H63.0822ZM71.0822 85H78.3622V69H71.0822V85ZM86.3622 77V48.608H70.3622V77H86.3622ZM78.3622 40.608H70.5622V56.608H78.3622V40.608ZM62.5622 48.608V65.196H78.5622V48.608H62.5622ZM62.5622 65.196C62.5622 65.2159 62.5601 64.997 62.6915 64.6404C62.8308 64.2621 63.0615 63.8911 63.351 63.5912L74.8614 74.7048C77.5098 71.9618 78.5622 68.529 78.5622 65.196H62.5622ZM63.4494 63.4911C63.7282 63.2123 64.1064 62.9536 64.5427 62.784C64.9625 62.6207 65.2697 62.604 65.3622 62.604V78.604C68.7509 78.604 72.1188 77.4492 74.7631 74.8049L63.4494 63.4911ZM65.3622 62.604C65.4547 62.604 65.762 62.6207 66.1818 62.784C66.6181 62.9536 66.9963 63.2123 67.2751 63.4911L55.9614 74.8049C58.6057 77.4491 61.9735 78.604 65.3622 78.604V62.604ZM67.3734 63.5912C67.663 63.8911 67.8936 64.2621 68.033 64.6404C68.1644 64.997 68.1622 65.2159 68.1622 65.196H52.1622C52.1622 68.529 53.2146 71.9618 55.863 74.7048L67.3734 63.5912ZM68.1622 65.196V48.608H52.1622V65.196H68.1622ZM60.1622 40.608H52.3622V56.608H60.1622V40.608ZM44.3622 48.608V65.82H60.3622V48.608H44.3622ZM44.3622 65.82C44.3622 70.7752 45.6769 75.6043 48.9964 79.5501L61.24 69.2499C60.8848 68.8277 60.3622 67.9368 60.3622 65.82H44.3622ZM49.0856 79.6542C52.8018 83.921 57.8916 85.624 63.1262 85.624V69.624C62.2121 69.624 61.724 69.4822 61.512 69.3969C61.3374 69.3266 61.249 69.2584 61.1509 69.1458L49.0856 79.6542ZM103.147 75.18L108.184 81.3955L103.147 75.18ZM104.291 63.636L98.2796 68.9144L98.312 68.9513L98.3448 68.9877L104.291 63.636ZM98.8831 60.464L96.5924 68.129L96.6091 68.134L96.6258 68.1389L98.8831 60.464ZM94.3591 59.112L96.6498 51.447L96.612 51.4357L96.5741 51.4247L94.3591 59.112ZM92.1231 54.848L87.5097 48.3123L87.4154 48.3788L87.3231 48.448L92.1231 54.848ZM98.2071 55.316L93.7203 61.9394L93.8423 62.0219L93.9671 62.1L98.2071 55.316ZM100.495 58.124L92.9512 60.7866L95.8908 69.1153L103.889 65.3685L100.495 58.124ZM106.267 55.42L109.661 62.6645L116.309 59.55L113.776 52.6595L106.267 55.42ZM101.795 49.96L97.5147 56.7186L97.5801 56.7599L97.6462 56.8001L101.795 49.96ZM88.8991 49.128L92.1626 56.4321L92.2269 56.4034L92.2906 56.3735L88.8991 49.128ZM85.6231 62.076L79.4891 67.2115L79.5189 67.2471L79.5491 67.2823L85.6231 62.076ZM90.9791 65.248L88.7965 72.9445L88.8108 72.9486L88.8252 72.9526L90.9791 65.248ZM95.8151 66.6L93.6612 74.3046L93.674 74.3081L95.8151 66.6ZM91.0311 70.344L86.468 76.915L91.0311 70.344ZM88.0671 66.756L95.287 63.3102L91.8539 56.117L84.6481 59.5234L88.0671 66.756ZM82.3471 69.46L78.9281 62.2274L72.5142 65.2594L74.7577 71.9898L82.3471 69.46ZM87.0271 75.44L82.6601 82.1429L82.7187 82.1811L82.778 82.2183L87.0271 75.44ZM95.1911 85.624C99.809 85.624 104.397 84.4637 108.184 81.3955L98.1105 68.9645C97.8754 69.155 97.1599 69.624 95.1911 69.624V85.624ZM108.184 81.3955C112.108 78.2156 114.163 73.7807 114.163 68.784H98.1631C98.1631 68.9326 98.1491 69.0039 98.1468 69.0148C98.1451 69.0229 98.1508 68.9945 98.1732 68.947C98.1958 68.8991 98.2184 68.8678 98.2253 68.8592C98.2306 68.8526 98.2018 68.8905 98.1105 68.9645L108.184 81.3955ZM114.163 68.784C114.163 64.9685 112.939 61.2863 110.237 58.2843L98.3448 68.9877C98.3277 68.9688 98.2958 68.9294 98.2603 68.8706C98.2246 68.8114 98.1964 68.751 98.1768 68.6969C98.1574 68.6437 98.153 68.615 98.154 68.621C98.1552 68.6284 98.1631 68.6798 98.1631 68.784H114.163ZM110.303 58.3576C107.797 55.5042 104.523 53.784 101.14 52.7891L96.6258 68.1389C97.2848 68.3328 97.7055 68.5308 97.9557 68.6776C98.1966 68.8189 98.2753 68.9095 98.2796 68.9144L110.303 58.3576ZM101.174 52.799L96.6498 51.447L92.0684 66.777L96.5924 68.129L101.174 52.799ZM96.5741 51.4247C96.048 51.2732 96.4732 51.3005 97.1693 51.8787C97.5675 52.2094 98.1222 52.7785 98.5744 53.6446C99.0459 54.5476 99.2911 55.5575 99.2911 56.564H83.2911C83.2911 59.9737 85.0064 62.5757 86.9469 64.1873C88.6657 65.6148 90.6249 66.3615 92.1441 66.7993L96.5741 51.4247ZM99.2911 56.564C99.2911 57.2331 99.1581 58.1294 98.6976 59.0792C98.2308 60.042 97.5714 60.7618 96.9231 61.248L87.3231 48.448C84.6391 50.461 83.2911 53.4651 83.2911 56.564H99.2911ZM96.7366 61.3837C95.5388 62.2293 94.5306 62.224 94.5151 62.224V46.224C92.4889 46.224 89.8861 46.6347 87.5097 48.3123L96.7366 61.3837ZM94.5151 62.224C94.5018 62.224 94.3872 62.2211 94.2091 62.1685C94.0266 62.1145 93.8561 62.0313 93.7203 61.9394L102.694 48.6926C100.203 47.0052 97.3865 46.224 94.5151 46.224V62.224ZM93.9671 62.1C93.8394 62.0202 93.6269 61.8585 93.4092 61.5914C93.1886 61.3205 93.0387 61.0344 92.9512 60.7866L108.039 55.4614C106.991 52.4906 105.015 50.1372 102.447 48.532L93.9671 62.1ZM103.889 65.3685L109.661 62.6645L102.873 48.1755L97.1013 50.8795L103.889 65.3685ZM113.776 52.6595C112.294 48.6296 109.634 45.3583 105.944 43.1199L97.6462 56.8001C98.1853 57.127 98.5067 57.4957 98.7585 58.1805L113.776 52.6595ZM106.076 43.2014C102.558 40.9738 98.6069 39.984 94.5151 39.984V55.984C95.97 55.984 96.8721 56.3115 97.5147 56.7186L106.076 43.2014ZM94.5151 39.984C91.4323 39.984 88.3689 40.5431 85.5076 41.8825L92.2906 56.3735C92.688 56.1875 93.3686 55.984 94.5151 55.984V39.984ZM85.6356 41.8239C82.821 43.0815 80.3321 45.0019 78.5007 47.6785L91.7056 56.7135C91.7088 56.7088 91.717 56.6951 91.7568 56.6629C91.8012 56.6271 91.9202 56.5404 92.1626 56.4321L85.6356 41.8239ZM78.5007 47.6785C76.5919 50.4683 75.7511 53.6247 75.7511 56.824H91.7511C91.7511 56.7221 91.7576 56.6555 91.7625 56.6193C91.7674 56.5837 91.7712 56.5739 91.7682 56.5843C91.765 56.5952 91.7575 56.6171 91.7442 56.6453C91.7309 56.6735 91.7168 56.6971 91.7056 56.7135L78.5007 47.6785ZM75.7511 56.824C75.7511 60.6425 76.9915 64.2283 79.4891 67.2115L91.7572 56.9405C91.7305 56.9087 91.7258 56.8979 91.7318 56.9083C91.7381 56.9192 91.7471 56.9377 91.7547 56.959C91.7623 56.9801 91.7625 56.9876 91.7603 56.974C91.7578 56.9594 91.7511 56.9118 91.7511 56.824H75.7511ZM79.5491 67.2823C82.0573 70.2086 85.3516 71.9676 88.7965 72.9445L93.1617 57.5515C92.5587 57.3805 92.1863 57.2029 91.9747 57.0776C91.7734 56.9584 91.7067 56.8808 91.6972 56.8697L79.5491 67.2823ZM88.8252 72.9526L93.6612 74.3046L97.9691 58.8954L93.1331 57.5434L88.8252 72.9526ZM93.674 74.3081C94.0191 74.404 93.4158 74.3129 92.6062 73.5933C92.1529 73.1903 91.6231 72.577 91.2177 71.7212C90.804 70.8479 90.6231 69.9381 90.6231 69.096H106.623C106.623 66.0069 105.231 63.4076 103.236 61.6347C101.49 60.0831 99.4832 59.316 97.9563 58.8919L93.674 74.3081ZM90.6231 69.096C90.6231 68.6303 90.702 67.8439 91.1105 66.934C91.5395 65.9785 92.2073 65.1695 92.9963 64.5837C94.4145 63.5308 95.5785 63.644 95.1911 63.644V79.644C97.0918 79.644 99.9717 79.3325 102.534 77.4303C105.543 75.1966 106.623 71.9279 106.623 69.096H90.6231ZM95.1911 63.644C95.1897 63.644 95.211 63.644 95.2506 63.6499C95.2907 63.6558 95.3397 63.6664 95.3933 63.6832C95.5105 63.7198 95.5817 63.7643 95.5943 63.773L86.468 76.915C89.0613 78.7159 92.0414 79.644 95.1911 79.644V63.644ZM95.5943 63.773C95.5825 63.7649 95.5607 63.749 95.5218 63.7019C95.48 63.6514 95.394 63.5344 95.287 63.3102L80.8473 70.2018C82.1054 72.8378 83.9534 75.1687 86.468 76.915L95.5943 63.773ZM84.6481 59.5234L78.9281 62.2274L85.7662 76.6926L91.4862 73.9886L84.6481 59.5234ZM74.7577 71.9898C76.1844 76.27 78.9193 79.7057 82.6601 82.1429L91.3942 68.7371C90.559 68.193 90.1739 67.642 89.9366 66.9302L74.7577 71.9898ZM82.778 82.2183C86.5432 84.5785 90.7809 85.624 95.1911 85.624V69.624C93.3613 69.624 92.1564 69.2135 91.2762 68.6617L82.778 82.2183ZM110.825 46.06H102.825V54.06H110.825V46.06ZM118.625 46.06V54.06H126.625V46.06H118.625ZM118.625 38.26H126.625V30.26H118.625V38.26ZM110.825 38.26V30.26H102.825V38.26H110.825ZM110.825 77H102.825V85H110.825V77ZM118.625 77V85H126.625V77H118.625ZM118.625 48.608H126.625V40.608H118.625V48.608ZM110.825 48.608V40.608H102.825V48.608H110.825ZM110.825 54.06H118.625V38.06H110.825V54.06ZM126.625 46.06V38.26H110.625V46.06H126.625ZM118.625 30.26H110.825V46.26H118.625V30.26ZM102.825 38.26V46.06H118.825V38.26H102.825ZM110.825 85H118.625V69H110.825V85ZM126.625 77V48.608H110.625V77H126.625ZM118.625 40.608H110.825V56.608H118.625V40.608ZM102.825 48.608V77H118.825V48.608H102.825ZM124.333 77H116.333V85H124.333V77ZM132.133 77V85H140.133V77H132.133ZM133.589 56.512L139.246 62.1689L139.295 62.1192L139.344 62.0688L133.589 56.512ZM141.077 56.512L135.321 62.0688L135.37 62.1192L135.42 62.1689L141.077 56.512ZM142.533 77H134.533V85H142.533V77ZM150.333 77V85H158.333V77H150.333ZM148.981 53.132L141.98 57.0045L141.998 57.0366L142.016 57.0685L148.981 53.132ZM145.185 49.336L141.248 56.3005L141.28 56.3185L141.312 56.3363L145.185 49.336ZM134.785 49.024L138.217 56.2502L138.29 56.2156L138.362 56.1794L134.785 49.024ZM131.613 52.092H123.613L138.696 55.8107L131.613 52.092ZM131.613 48.608H139.613V40.608H131.613V48.608ZM124.333 48.608V40.608H116.333V48.608H124.333ZM124.333 85H132.133V69H124.333V85ZM140.133 77V60.412H124.133V77H140.133ZM140.133 60.412C140.133 60.3896 140.136 60.627 139.991 61.013C139.838 61.4246 139.58 61.8348 139.246 62.1689L127.932 50.8551C125.184 53.6026 124.133 57.0869 124.133 60.412H140.133ZM139.344 62.0688C139.079 62.3428 138.701 62.6167 138.242 62.8017C137.797 62.9808 137.458 63.004 137.333 63.004V47.004C133.857 47.004 130.458 48.2371 127.833 50.9552L139.344 62.0688ZM137.333 63.004C137.207 63.004 136.868 62.9808 136.424 62.8017C135.964 62.6167 135.586 62.3428 135.321 62.0688L146.832 50.9552C144.207 48.2371 140.808 47.004 137.333 47.004V63.004ZM135.42 62.1689C135.086 61.8348 134.828 61.4246 134.674 61.013C134.53 60.627 134.533 60.3896 134.533 60.412H150.533C150.533 57.0869 149.481 53.6026 146.734 50.8551L135.42 62.1689ZM134.533 60.412V77H150.533V60.412H134.533ZM142.533 85H150.333V69H142.533V85ZM158.333 77V58.748H142.333V77H158.333ZM158.333 58.748C158.333 55.4598 157.635 52.1845 155.945 49.1955L142.016 57.0685C142.129 57.2688 142.333 57.7375 142.333 58.748H158.333ZM155.981 49.2595C154.352 46.3143 152.002 43.965 149.057 42.3357L141.312 56.3363C141.626 56.5097 141.807 56.691 141.98 57.0045L155.981 49.2595ZM149.121 42.3715C146.132 40.6821 142.857 39.984 139.569 39.984V55.984C140.579 55.984 141.048 56.1873 141.248 56.3005L149.121 42.3715ZM139.569 39.984C136.726 39.984 133.872 40.536 131.207 41.8686L138.362 56.1794C138.471 56.1253 138.806 55.984 139.569 55.984V39.984ZM131.352 41.7978C128.367 43.2156 126.045 45.4865 124.529 48.3733L138.696 55.8107C138.69 55.8223 138.635 55.9175 138.513 56.0353C138.39 56.1544 138.274 56.223 138.217 56.2502L131.352 41.7978ZM139.613 52.092V48.608H123.613V52.092H139.613ZM131.613 40.608H124.333V56.608H131.613V40.608ZM116.333 48.608V77H132.333V48.608H116.333ZM176.782 75.752L180.751 82.6979L180.792 82.6744L180.833 82.6503L176.782 75.752ZM181.358 70.708L188.742 73.7849L191.673 66.7512L184.79 63.4818L181.358 70.708ZM175.118 67.744L178.55 60.5178L171.851 57.3358L168.172 63.7749L175.118 67.744ZM172.778 70.032L168.913 63.0274L168.86 63.0563L168.808 63.0861L172.778 70.032ZM164.562 69.252L159.257 75.2407V75.2407L164.562 69.252ZM162.43 64.988V56.988H153.433L154.484 65.9227L162.43 64.988ZM182.294 64.988V72.988H187.897L189.812 67.7219L182.294 64.988ZM182.554 63.636L174.615 62.6437L174.587 62.8732L174.571 63.1039L182.554 63.636ZM180.994 54.9L173.862 58.5244L173.898 58.5949L173.935 58.6647L180.994 54.9ZM176.262 49.856L172.146 56.7159V56.7159L176.262 49.856ZM161.338 49.908L165.437 56.7777L161.338 49.908ZM156.19 55.16L149.264 51.156L149.24 51.1968L149.217 51.2379L156.19 55.16ZM156.138 70.24L163.181 66.4472L156.138 70.24ZM161.286 75.648L157.123 82.4795L157.162 82.5034L157.201 82.5268L161.286 75.648ZM172.57 55.628L167.218 61.5744V61.5744L172.57 55.628ZM174.39 59.268V67.268H183.374L182.336 58.344L174.39 59.268ZM162.586 59.268L154.796 57.4449L152.497 67.268H162.586V59.268ZM164.718 55.524L159.696 49.2967L159.645 49.3371L159.596 49.3782L164.718 55.524ZM169.138 85.624C173.22 85.624 177.179 84.739 180.751 82.6979L172.812 68.8061C172.016 69.261 170.879 69.624 169.138 69.624V85.624ZM180.833 82.6503C184.318 80.6033 187.126 77.6631 188.742 73.7849L173.973 67.6311C173.856 67.9129 173.613 68.3353 172.73 68.8537L180.833 82.6503ZM184.79 63.4818L178.55 60.5178L171.685 74.9702L177.925 77.9342L184.79 63.4818ZM168.172 63.7749C168.253 63.6328 168.371 63.4736 168.524 63.3239C168.676 63.1753 168.817 63.0801 168.913 63.0274L176.642 77.0366C178.897 75.7924 180.759 73.9951 182.064 71.7131L168.172 63.7749ZM168.808 63.0861C169.044 62.9513 169.235 62.8917 169.333 62.8687C169.424 62.8474 169.405 62.864 169.242 62.864V78.864C171.689 78.864 174.309 78.3709 176.747 76.9779L168.808 63.0861ZM169.242 62.864C169.039 62.864 169.07 62.836 169.247 62.8971C169.334 62.9272 169.441 62.9736 169.557 63.0408C169.673 63.1081 169.777 63.1847 169.866 63.2633L159.257 75.2407C162.185 77.8341 165.745 78.864 169.242 78.864V62.864ZM169.866 63.2633C170.009 63.3901 170.163 63.5799 170.274 63.8023C170.38 64.0137 170.383 64.127 170.375 64.0533L154.484 65.9227C154.898 69.4352 156.424 72.7309 159.257 75.2407L169.866 63.2633ZM162.43 72.988H182.294V56.988H162.43V72.988ZM189.812 67.7219C190.269 66.4643 190.464 65.2384 190.536 64.1681L174.571 63.1039C174.573 63.0736 174.595 62.749 174.775 62.2541L189.812 67.7219ZM190.492 64.6283C190.602 63.747 190.658 62.861 190.658 61.972H174.658C174.658 62.1924 174.644 62.4157 174.615 62.6437L190.492 64.6283ZM190.658 61.972C190.658 58.1811 189.85 54.5049 188.052 51.1353L173.935 58.6647C174.356 59.4551 174.658 60.4935 174.658 61.972H190.658ZM188.125 51.2756C186.353 47.7888 183.716 44.9992 180.378 42.9961L172.146 56.7159C172.967 57.2088 173.484 57.7819 173.862 58.5244L188.125 51.2756ZM180.378 42.9961C176.785 40.8403 172.733 39.984 168.618 39.984V55.984C170.534 55.984 171.579 56.3757 172.146 56.7159L180.378 42.9961ZM168.618 39.984C164.59 39.984 160.726 40.9567 157.238 43.0383L165.437 56.7777C166.248 56.294 167.237 55.984 168.618 55.984V39.984ZM157.238 43.0383C153.889 45.0369 151.212 47.7863 149.264 51.156L163.115 59.164C163.733 58.0964 164.488 57.3444 165.437 56.7777L157.238 43.0383ZM149.217 51.2379C147.219 54.789 146.318 58.6991 146.318 62.752H162.318C162.318 61.1196 162.664 59.9683 163.162 59.0821L149.217 51.2379ZM146.318 62.752C146.318 66.7191 147.209 70.5325 149.094 74.0328L163.181 66.4472C162.639 65.4408 162.318 64.2623 162.318 62.752H146.318ZM149.094 74.0328C150.991 77.5567 153.71 80.4002 157.123 82.4795L165.449 68.8165C164.423 68.1918 163.711 67.43 163.181 66.4472L149.094 74.0328ZM157.201 82.5268C160.851 84.694 164.93 85.624 169.138 85.624V69.624C167.313 69.624 166.157 69.2367 165.37 68.7692L157.201 82.5268ZM168.618 62.224C168.629 62.224 168.436 62.2246 168.123 62.1134C167.794 61.9965 167.476 61.8063 167.218 61.5744L177.921 49.6816C175.207 47.2383 171.893 46.224 168.618 46.224V62.224ZM167.218 61.5744C167.018 61.3941 166.808 61.1347 166.649 60.8177C166.495 60.5088 166.452 60.2727 166.443 60.192L182.336 58.344C181.956 55.0716 180.519 52.0193 177.921 49.6816L167.218 61.5744ZM174.39 51.268H162.586V67.268H174.39V51.268ZM170.375 61.0911C170.419 60.9044 170.438 60.9252 170.356 61.0687C170.267 61.2263 170.099 61.453 169.839 61.6698L159.596 49.3782C156.932 51.5986 155.478 54.5304 154.796 57.4449L170.375 61.0911ZM169.74 61.7513C169.54 61.9124 169.291 62.0511 169.028 62.1385C168.906 62.1792 168.804 62.2013 168.729 62.2128C168.655 62.2241 168.615 62.224 168.618 62.224V46.224C165.469 46.224 162.344 47.1612 159.696 49.2967L169.74 61.7513ZM206.335 75.18L211.371 81.3955L206.335 75.18ZM207.479 63.636L201.467 68.9144L201.499 68.9513L201.532 68.9877L207.479 63.636ZM202.071 60.464L199.78 68.129L199.797 68.134L199.813 68.1389L202.071 60.464ZM197.547 59.112L199.837 51.447L199.8 51.4357L199.762 51.4247L197.547 59.112ZM195.311 54.848L190.697 48.3123L190.603 48.3788L190.511 48.448L195.311 54.848ZM201.395 55.316L196.908 61.9394L197.03 62.0219L197.155 62.1L201.395 55.316ZM203.683 58.124L196.139 60.7866L199.078 69.1153L207.076 65.3685L203.683 58.124ZM209.455 55.42L212.848 62.6645L219.497 59.55L216.963 52.6595L209.455 55.42ZM204.983 49.96L200.702 56.7186L200.768 56.7599L200.834 56.8001L204.983 49.96ZM192.087 49.128L195.35 56.4321L195.414 56.4034L195.478 56.3735L192.087 49.128ZM188.811 62.076L182.677 67.2115L182.706 67.2471L182.737 67.2823L188.811 62.076ZM194.167 65.248L191.984 72.9445L191.998 72.9486L192.013 72.9526L194.167 65.248ZM199.003 66.6L196.849 74.3046L196.861 74.3081L199.003 66.6ZM194.219 70.344L189.655 76.915L194.219 70.344ZM191.255 66.756L198.474 63.3102L195.041 56.117L187.836 59.5234L191.255 66.756ZM185.535 69.46L182.116 62.2274L175.702 65.2594L177.945 71.9898L185.535 69.46ZM190.215 75.44L185.848 82.1429L185.906 82.1811L185.966 82.2183L190.215 75.44ZM198.379 85.624C202.997 85.624 207.585 84.4637 211.371 81.3955L201.298 68.9645C201.063 69.155 200.347 69.624 198.379 69.624V85.624ZM211.371 81.3955C215.295 78.2156 217.351 73.7807 217.351 68.784H201.351C201.351 68.9326 201.337 69.0039 201.334 69.0148C201.333 69.0229 201.338 68.9945 201.361 68.947C201.383 68.8991 201.406 68.8678 201.413 68.8592C201.418 68.8526 201.389 68.8905 201.298 68.9645L211.371 81.3955ZM217.351 68.784C217.351 64.9685 216.127 61.2863 213.425 58.2843L201.532 68.9877C201.515 68.9688 201.483 68.9294 201.448 68.8706C201.412 68.8114 201.384 68.751 201.364 68.6969C201.345 68.6437 201.34 68.615 201.341 68.621C201.343 68.6284 201.351 68.6798 201.351 68.784H217.351ZM213.49 58.3576C210.985 55.5042 207.711 53.784 204.328 52.7891L199.813 68.1389C200.472 68.3328 200.893 68.5308 201.143 68.6776C201.384 68.8189 201.463 68.9095 201.467 68.9144L213.49 58.3576ZM204.361 52.799L199.837 51.447L195.256 66.777L199.78 68.129L204.361 52.799ZM199.762 51.4247C199.236 51.2732 199.661 51.3005 200.357 51.8787C200.755 52.2094 201.31 52.7785 201.762 53.6446C202.233 54.5476 202.479 55.5575 202.479 56.564H186.479C186.479 59.9737 188.194 62.5757 190.134 64.1873C191.853 65.6148 193.812 66.3615 195.332 66.7993L199.762 51.4247ZM202.479 56.564C202.479 57.2331 202.346 58.1294 201.885 59.0792C201.418 60.042 200.759 60.7618 200.111 61.248L190.511 48.448C187.827 50.461 186.479 53.4651 186.479 56.564H202.479ZM199.924 61.3837C198.726 62.2293 197.718 62.224 197.703 62.224V46.224C195.676 46.224 193.074 46.6347 190.697 48.3123L199.924 61.3837ZM197.703 62.224C197.689 62.224 197.575 62.2211 197.397 62.1685C197.214 62.1145 197.044 62.0313 196.908 61.9394L205.881 48.6926C203.39 47.0052 200.574 46.224 197.703 46.224V62.224ZM197.155 62.1C197.027 62.0202 196.814 61.8585 196.597 61.5914C196.376 61.3205 196.226 61.0344 196.139 60.7866L211.227 55.4614C210.178 52.4906 208.203 50.1372 205.635 48.532L197.155 62.1ZM207.076 65.3685L212.848 62.6645L206.061 48.1755L200.289 50.8795L207.076 65.3685ZM216.963 52.6595C215.482 48.6296 212.822 45.3583 209.132 43.1199L200.834 56.8001C201.373 57.127 201.694 57.4957 201.946 58.1805L216.963 52.6595ZM209.263 43.2014C205.746 40.9738 201.794 39.984 197.703 39.984V55.984C199.158 55.984 200.06 56.3115 200.702 56.7186L209.263 43.2014ZM197.703 39.984C194.62 39.984 191.556 40.5431 188.695 41.8825L195.478 56.3735C195.876 56.1875 196.556 55.984 197.703 55.984V39.984ZM188.823 41.8239C186.009 43.0815 183.52 45.0019 181.688 47.6785L194.893 56.7135C194.896 56.7088 194.904 56.6951 194.944 56.6629C194.989 56.6271 195.108 56.5404 195.35 56.4321L188.823 41.8239ZM181.688 47.6785C179.779 50.4683 178.939 53.6247 178.939 56.824H194.939C194.939 56.7221 194.945 56.6555 194.95 56.6193C194.955 56.5837 194.959 56.5739 194.956 56.5843C194.952 56.5952 194.945 56.6171 194.932 56.6453C194.918 56.6735 194.904 56.6971 194.893 56.7135L181.688 47.6785ZM178.939 56.824C178.939 60.6425 180.179 64.2283 182.677 67.2115L194.945 56.9405C194.918 56.9087 194.913 56.8979 194.919 56.9083C194.926 56.9192 194.935 56.9377 194.942 56.959C194.95 56.9801 194.95 56.9876 194.948 56.974C194.945 56.9594 194.939 56.9118 194.939 56.824H178.939ZM182.737 67.2823C185.245 70.2086 188.539 71.9676 191.984 72.9445L196.349 57.5515C195.746 57.3805 195.374 57.2029 195.162 57.0776C194.961 56.9584 194.894 56.8808 194.885 56.8697L182.737 67.2823ZM192.013 72.9526L196.849 74.3046L201.157 58.8954L196.321 57.5434L192.013 72.9526ZM196.861 74.3081C197.207 74.404 196.603 74.3129 195.794 73.5933C195.34 73.1903 194.811 72.577 194.405 71.7212C193.992 70.8479 193.811 69.9381 193.811 69.096H209.811C209.811 66.0069 208.418 63.4076 206.424 61.6347C204.678 60.0831 202.671 59.316 201.144 58.8919L196.861 74.3081ZM193.811 69.096C193.811 68.6303 193.889 67.8439 194.298 66.934C194.727 65.9785 195.395 65.1695 196.184 64.5837C197.602 63.5308 198.766 63.644 198.379 63.644V79.644C200.279 79.644 203.159 79.3325 205.721 77.4303C208.73 75.1966 209.811 71.9279 209.811 69.096H193.811ZM198.379 63.644C198.377 63.644 198.399 63.644 198.438 63.6499C198.478 63.6558 198.527 63.6664 198.581 63.6832C198.698 63.7198 198.769 63.7643 198.782 63.773L189.655 76.915C192.249 78.7159 195.229 79.644 198.379 79.644V63.644ZM198.782 63.773C198.77 63.7649 198.748 63.749 198.709 63.7019C198.668 63.6514 198.581 63.5344 198.474 63.3102L184.035 70.2018C185.293 72.8378 187.141 75.1687 189.655 76.915L198.782 63.773ZM187.836 59.5234L182.116 62.2274L188.954 76.6926L194.674 73.9886L187.836 59.5234ZM177.945 71.9898C179.372 76.27 182.107 79.7057 185.848 82.1429L194.582 68.7371C193.746 68.193 193.361 67.642 193.124 66.9302L177.945 71.9898ZM185.966 82.2183C189.731 84.5785 193.968 85.624 198.379 85.624V69.624C196.549 69.624 195.344 69.2135 194.464 68.6617L185.966 82.2183ZM233.096 75.18L238.133 81.3955L233.096 75.18ZM234.24 63.636L228.229 68.9144L228.261 68.9513L228.294 68.9877L234.24 63.636ZM228.832 60.464L226.542 68.129L226.558 68.134L226.575 68.1389L228.832 60.464ZM224.308 59.112L226.599 51.447L226.561 51.4357L226.523 51.4247L224.308 59.112ZM222.072 54.848L217.459 48.3123L217.365 48.3788L217.272 48.448L222.072 54.848ZM228.156 55.316L223.67 61.9394L223.791 62.0219L223.916 62.1L228.156 55.316ZM230.444 58.124L222.9 60.7866L225.84 69.1153L233.838 65.3685L230.444 58.124ZM236.216 55.42L239.61 62.6645L246.258 59.55L243.725 52.6595L236.216 55.42ZM231.744 49.96L227.464 56.7186L227.529 56.7599L227.595 56.8001L231.744 49.96ZM218.848 49.128L222.112 56.4321L222.176 56.4034L222.24 56.3735L218.848 49.128ZM215.572 62.076L209.438 67.2115L209.468 67.2471L209.498 67.2823L215.572 62.076ZM220.928 65.248L218.746 72.9445L218.76 72.9486L218.774 72.9526L220.928 65.248ZM225.764 66.6L223.61 74.3046L223.623 74.3081L225.764 66.6ZM220.98 70.344L216.417 76.915L220.98 70.344ZM218.016 66.756L225.236 63.3102L221.803 56.117L214.597 59.5234L218.016 66.756ZM212.296 69.46L208.877 62.2274L202.463 65.2594L204.707 71.9898L212.296 69.46ZM216.976 75.44L212.609 82.1429L212.668 82.1811L212.727 82.2183L216.976 75.44ZM225.14 85.624C229.758 85.624 234.347 84.4637 238.133 81.3955L228.06 68.9645C227.825 69.155 227.109 69.624 225.14 69.624V85.624ZM238.133 81.3955C242.057 78.2156 244.112 73.7807 244.112 68.784H228.112C228.112 68.9326 228.098 69.0039 228.096 69.0148C228.094 69.0229 228.1 68.9945 228.122 68.947C228.145 68.8991 228.168 68.8678 228.175 68.8592C228.18 68.8526 228.151 68.8905 228.06 68.9645L238.133 81.3955ZM244.112 68.784C244.112 64.9685 242.888 61.2863 240.187 58.2843L228.294 68.9877C228.277 68.9688 228.245 68.9294 228.21 68.8706C228.174 68.8114 228.146 68.751 228.126 68.6969C228.107 68.6437 228.102 68.615 228.103 68.621C228.104 68.6284 228.112 68.6798 228.112 68.784H244.112ZM240.252 58.3576C237.746 55.5042 234.473 53.784 231.09 52.7891L226.575 68.1389C227.234 68.3328 227.655 68.5308 227.905 68.6776C228.146 68.8189 228.225 68.9095 228.229 68.9144L240.252 58.3576ZM231.123 52.799L226.599 51.447L222.018 66.777L226.542 68.129L231.123 52.799ZM226.523 51.4247C225.997 51.2732 226.422 51.3005 227.119 51.8787C227.517 52.2094 228.071 52.7785 228.524 53.6446C228.995 54.5476 229.24 55.5575 229.24 56.564H213.24C213.24 59.9737 214.956 62.5757 216.896 64.1873C218.615 65.6148 220.574 66.3615 222.093 66.7993L226.523 51.4247ZM229.24 56.564C229.24 57.2331 229.107 58.1294 228.647 59.0792C228.18 60.042 227.521 60.7618 226.872 61.248L217.272 48.448C214.588 50.461 213.24 53.4651 213.24 56.564H229.24ZM226.686 61.3837C225.488 62.2293 224.48 62.224 224.464 62.224V46.224C222.438 46.224 219.835 46.6347 217.459 48.3123L226.686 61.3837ZM224.464 62.224C224.451 62.224 224.336 62.2211 224.158 62.1685C223.976 62.1145 223.805 62.0313 223.67 61.9394L232.643 48.6926C230.152 47.0052 227.336 46.224 224.464 46.224V62.224ZM223.916 62.1C223.789 62.0202 223.576 61.8585 223.358 61.5914C223.138 61.3205 222.988 61.0344 222.9 60.7866L237.988 55.4614C236.94 52.4906 234.965 50.1372 232.396 48.532L223.916 62.1ZM233.838 65.3685L239.61 62.6645L232.823 48.1755L227.051 50.8795L233.838 65.3685ZM243.725 52.6595C242.243 48.6296 239.584 45.3583 235.893 43.1199L227.595 56.8001C228.134 57.127 228.456 57.4957 228.708 58.1805L243.725 52.6595ZM236.025 43.2014C232.507 40.9738 228.556 39.984 224.464 39.984V55.984C225.919 55.984 226.821 56.3115 227.464 56.7186L236.025 43.2014ZM224.464 39.984C221.382 39.984 218.318 40.5431 215.457 41.8825L222.24 56.3735C222.637 56.1875 223.318 55.984 224.464 55.984V39.984ZM215.585 41.8239C212.77 43.0815 210.281 45.0019 208.45 47.6785L221.655 56.7135C221.658 56.7088 221.666 56.6951 221.706 56.6629C221.75 56.6271 221.869 56.5404 222.112 56.4321L215.585 41.8239ZM208.45 47.6785C206.541 50.4683 205.7 53.6247 205.7 56.824H221.7C221.7 56.7221 221.707 56.6555 221.712 56.6193C221.717 56.5837 221.72 56.5739 221.717 56.5843C221.714 56.5952 221.707 56.6171 221.693 56.6453C221.68 56.6735 221.666 56.6971 221.655 56.7135L208.45 47.6785ZM205.7 56.824C205.7 60.6425 206.941 64.2283 209.438 67.2115L221.706 56.9405C221.68 56.9087 221.675 56.8979 221.681 56.9083C221.687 56.9192 221.696 56.9377 221.704 56.959C221.711 56.9801 221.712 56.9876 221.709 56.974C221.707 56.9594 221.7 56.9118 221.7 56.824H205.7ZM209.498 67.2823C212.007 70.2086 215.301 71.9676 218.746 72.9445L223.111 57.5515C222.508 57.3805 222.136 57.2029 221.924 57.0776C221.723 56.9584 221.656 56.8808 221.646 56.8697L209.498 67.2823ZM218.774 72.9526L223.61 74.3046L227.918 58.8954L223.082 57.5434L218.774 72.9526ZM223.623 74.3081C223.968 74.404 223.365 74.3129 222.555 73.5933C222.102 73.1903 221.572 72.577 221.167 71.7212C220.753 70.8479 220.572 69.9381 220.572 69.096H236.572C236.572 66.0069 235.18 63.4076 233.185 61.6347C231.44 60.0831 229.432 59.316 227.906 58.8919L223.623 74.3081ZM220.572 69.096C220.572 68.6303 220.651 67.8439 221.06 66.934C221.489 65.9785 222.157 65.1695 222.946 64.5837C224.364 63.5308 225.528 63.644 225.14 63.644V79.644C227.041 79.644 229.921 79.3325 232.483 77.4303C235.492 75.1966 236.572 71.9279 236.572 69.096H220.572ZM225.14 63.644C225.139 63.644 225.16 63.644 225.2 63.6499C225.24 63.6558 225.289 63.6664 225.343 63.6832C225.46 63.7198 225.531 63.7643 225.544 63.773L216.417 76.915C219.011 78.7159 221.991 79.644 225.14 79.644V63.644ZM225.544 63.773C225.532 63.7649 225.51 63.749 225.471 63.7019C225.429 63.6514 225.343 63.5344 225.236 63.3102L210.796 70.2018C212.055 72.8378 213.903 75.1687 216.417 76.915L225.544 63.773ZM214.597 59.5234L208.877 62.2274L215.715 76.6926L221.435 73.9886L214.597 59.5234ZM204.707 71.9898C206.134 76.27 208.868 79.7057 212.609 82.1429L221.343 68.7371C220.508 68.193 220.123 67.642 219.886 66.9302L204.707 71.9898ZM212.727 82.2183C216.492 84.5785 220.73 85.624 225.14 85.624V69.624C223.311 69.624 222.106 69.2135 221.225 68.6617L212.727 82.2183Z" fill="white" mask="url(#path-1-outside-1_132_3753)"/>
</mask>
<g mask="url(#mask0_132_3753)">
<g filter="url(#filter0_f_132_3753)">
<rect x="50" y="50.0069" width="170.448" height="36.8166" fill="url(#paint0_linear_132_3753)"/>
</g>
</g>
<defs>
<filter id="filter0_f_132_3753" x="0" y="-0.000762939" width="270.45" height="136.824" filterUnits="userSpaceOnUse" color-interpolation-filters="sRGB">
<feFlood flood-opacity="0" result="BackgroundImageFix"/>
<feBlend mode="normal" in="SourceGraphic" in2="BackgroundImageFix" result="shape"/>
<feGaussianBlur stdDeviation="25" result="effect1_foregroundBlur_132_3753"/>
</filter>
<linearGradient id="paint0_linear_132_3753" x1="49.0665" y1="68.4152" x2="219.328" y2="68.4152" gradientUnits="userSpaceOnUse">
<stop offset="0.2" stop-color="#55CBFB"/>
<stop offset="0.5" stop-color="#1D4ED8"/>
<stop offset="0.9" stop-color="#000081"/>
</linearGradient>
</defs>
</svg>
